<svg 
 xmlns="http://www.w3.org/2000/svg"
 xmlns:xlink="http://www.w3.org/1999/xlink"
 width="10px" height="6px">
<path fill-rule="evenodd"  fill="rgb(114, 96, 138)"
 d="M0.361,1.904 C1.833,3.307 3.964,5.996 4.910,5.999 C5.593,5.877 5.777,5.481 6.139,5.146 C6.918,4.426 7.696,3.705 8.475,2.985 C8.813,2.672 9.171,2.293 9.520,1.904 C10.448,0.920 9.874,0.30 9.90,0.61 C8.356,0.92 8.172,0.512 7.799,0.858 C7.164,1.445 6.513,2.17 5.893,2.621 C5.582,2.924 5.375,3.285 5.33,3.417 C4.557,3.259 4.203,2.706 3.865,2.393 C3.3,1.596 1.923,0.352 1.222,0.61 C0.81,0.304 0.397,1.153 0.361,1.904 Z"/>
</svg>