<svg 
 xmlns="http://www.w3.org/2000/svg"
 xmlns:xlink="http://www.w3.org/1999/xlink"
 width="19px" height="20px">
<path fill-rule="evenodd"  fill="rgb(242, 242, 243)"
 d="M0.838,0.4 C3.258,0.55 4.292,0.492 5.33,2.67 C7.484,2.41 18.716,1.536 18.999,2.951 C18.786,3.770 18.572,4.589 18.358,5.407 C17.593,7.967 17.475,11.105 14.558,11.547 C12.533,11.854 3.914,10.592 4.244,12.726 C4.626,15.204 18.789,11.823 18.999,14.838 C18.410,16.252 15.204,15.722 13.275,15.722 C10.894,15.722 5.928,16.267 4.95,15.526 C2.339,14.815 1.473,12.241 2.862,10.516 C3.384,9.867 4.139,9.787 4.934,9.386 C4.260,7.94 3.586,4.801 2.911,2.509 C2.405,1.810 0.693,2.398 0.197,1.674 C0.330,0.904 0.309,0.319 0.838,0.4 ZM5.675,4.228 C6.168,5.964 6.662,7.700 7.155,9.435 C8.802,9.446 14.613,9.775 15.150,8.944 C15.611,7.372 16.71,5.800 16.532,4.228 C12.913,4.228 9.293,4.228 5.675,4.228 ZM6.612,16.754 C8.742,16.662 9.33,19.448 7.303,19.898 C5.131,20.462 4.598,17.551 6.612,16.754 ZM15.51,16.754 C17.336,16.654 17.386,19.732 15.397,19.947 C13.341,20.169 13.248,17.412 15.51,16.754 Z"/>
</svg>