<svg xmlns="http://www.w3.org/2000/svg" width="19" height="20" viewBox="0 0 19 20">
  <defs>
    <style>
      .cls-1 {
        fill: #f2f2f3;
        fill-rule: evenodd;
      }
    </style>
  </defs>
  <path id="cart_1" data-name="cart 1" class="cls-1" d="M1460.84,112.005c2.42-.06,3.45.487,4.19,2.063,2.45-.026,13.69-0.532,13.97.884-0.21.818-.43,1.637-0.64,2.456-0.77,2.56-.88,5.7-3.8,6.14-2.03.307-10.65-.956-10.32,1.179,0.39,2.478,14.55-.9,14.76,2.112-0.59,1.413-3.8.884-5.72,0.884-2.39,0-7.35.545-9.18-.2a3.306,3.306,0,0,1-1.24-5.01,5.413,5.413,0,0,1,2.07-1.13q-1.005-3.438-2.02-6.876c-0.5-.7-2.22-0.112-2.71-0.835A1.14,1.14,0,0,1,1460.84,112.005Zm4.84,4.224q0.735,2.6,1.48,5.207c1.64,0.01,7.45.339,7.99-.492l1.38-4.715h-10.85Zm0.93,12.525a1.617,1.617,0,0,1,.69,3.144C1465.13,132.462,1464.6,129.551,1466.61,128.754Zm8.44,0a1.606,1.606,0,1,1,.35,3.193C1473.34,132.169,1473.25,129.412,1475.05,128.754Z" transform="translate(-1460 -112)"/>
</svg>
