<svg xmlns="http://www.w3.org/2000/svg" width="12" height="12" viewBox="0 0 12 12">
  <defs>
    <style>
      .cls-1 {
        fill: #72608a;
        fill-rule: evenodd;
      }
    </style>
  </defs>
  <path id="arrow_2_580" data-name="arrow 2 580" class="cls-1" d="M523.491,354.222c1.957,1.956,2.888,3.773,4.145,3.778,0.909-.171,3.493-3.487,3.841-4.063l2.244-3.716c0.325-.539.652-1.171,0.963-1.816,0.848-1.646-.2-2.647-1.2-2.335a2.349,2.349,0,0,0-1.38,1.518c-0.61,1.01-1.246,2-1.831,3.031-0.293.516-2.018,3.6-2.473,3.782a1.771,1.771,0,0,1-.919-0.783c-1.146-1.112-1.314-1.559-2.245-1.964C523.118,351.144,522.482,353.176,523.491,354.222Z" transform="translate(-523 -346)"/>
</svg>
