<svg xmlns="http://www.w3.org/2000/svg" width="11" height="11" viewBox="0 0 11 11">
  <defs>
    <style>
      .cls-1 {
        fill: #acacbf;
        fill-rule: evenodd;
      }
    </style>
  </defs>
  <path id="clock_1096" data-name="clock 1096" class="cls-1" d="M547.1,307a5.412,5.412,0,0,1,5.425,3.252,5.461,5.461,0,0,1-3.255,7.456,11.186,11.186,0,0,1-1.351.265,2.345,2.345,0,0,1-.8-0.022c-0.2-.045-0.368,0-0.554-0.044a8.709,8.709,0,0,1-1.284-.42,5.378,5.378,0,0,1-3.055-3.562,5.04,5.04,0,0,1-.156-2.257,8.443,8.443,0,0,1,.222-0.929,5.653,5.653,0,0,1,3.122-3.34,7.606,7.606,0,0,1,1.151-.332A2.212,2.212,0,0,0,547.1,307Zm0,1.947a0.4,0.4,0,0,0-.222.177,0.939,0.939,0,0,0-.066.531v1.283a8.477,8.477,0,0,0,.089,2.213,3.7,3.7,0,0,0,1.085.884,1.96,1.96,0,0,0,.93.576c0.043-.034.106-0.034,0.155-0.067a0.974,0.974,0,0,0,.177-0.243,1.072,1.072,0,0,0,.4-0.664c-0.035-.043-0.033-0.106-0.066-0.155a1.405,1.405,0,0,0-.354-0.243c-0.188-.132-0.366-0.31-0.554-0.443a5.04,5.04,0,0,1-.443-0.287v-3.274a0.411,0.411,0,0,1-.066-0.155A2.007,2.007,0,0,0,547.1,308.948Z" transform="translate(-542 -307)"/>
</svg>
