<svg 
 xmlns="http://www.w3.org/2000/svg"
 xmlns:xlink="http://www.w3.org/1999/xlink"
 width="20px" height="20px">
<path fill-rule="evenodd"  fill="rgb(114, 96, 138)"
 d="M19.28,3.862 C18.333,4.654 17.621,5.424 16.946,6.61 C15.665,7.273 14.383,8.485 13.101,9.697 C15.66,11.553 17.413,14.355 19.248,16.137 C20.763,17.666 19.808,20.634 17.529,19.889 C16.130,19.297 13.972,16.765 12.251,15.142 C11.577,14.506 10.869,13.381 9.918,13.58 C9.234,13.328 8.821,14.62 8.200,14.679 C6.963,15.907 5.663,17.71 4.394,18.268 C3.649,18.971 3.283,19.826 1.817,19.889 C0.249,19.953 0.895,18.141 0.957,16.137 C1.654,15.345 2.368,14.87 3.44,13.449 C4.324,12.242 5.603,11.362 6.883,10.273 C4.929,8.416 2.602,5.635 0.781,3.862 C0.730,2.333 0.221,0.634 2.495,0.110 C3.891,0.702 6.45,3.234 7.761,4.857 C8.434,5.493 9.139,6.618 10.88,6.941 C10.771,6.671 11.183,5.937 11.803,5.320 C13.36,4.92 14.334,2.928 15.599,1.731 C16.342,1.28 16.708,0.173 18.171,0.110 C19.735,0.46 20.877,1.858 19.28,3.862 Z"/>
</svg>