<svg xmlns="http://www.w3.org/2000/svg" width="12" height="11.031" viewBox="0 0 12 11.031">
  <defs>
    <style>
      .cls-1 {
        fill: #acacbf;
        fill-rule: evenodd;
      }
    </style>
  </defs>
  <path id="commission_1097" data-name="commission 1097" class="cls-1" d="M1354.01,533.147v-3.206a16.921,16.921,0,0,1,.02-1.751,1.218,1.218,0,0,1,.17-0.159,0.958,0.958,0,0,1,.53.023l0.52,0.068c0.17,0.049.37,0.123,0.54,0.182a5.187,5.187,0,0,1,3.1,2.82,6.514,6.514,0,0,1,.33,1.182,1.266,1.266,0,0,1,.07.591,0.659,0.659,0,0,1-.26.25h-5.02Zm-1.45-4.411a0.347,0.347,0,0,1,.19.046,0.238,0.238,0,0,1,.16.159,5.32,5.32,0,0,1,.05,1.41v3.842a2.629,2.629,0,0,1,.35.342c0.26,0.25.51,0.5,0.77,0.75,0.81,0.785,1.61,1.568,2.41,2.365,0,0.508-.72.725-1.1,0.887a7.9,7.9,0,0,1-1.29.386,5.488,5.488,0,0,1-3.71-.818,5.324,5.324,0,0,1-2.24-3.252,4.005,4.005,0,0,1-.1-1.637,8.4,8.4,0,0,1,.19-0.887,6.2,6.2,0,0,1,1.12-1.933,2.4,2.4,0,0,1,.47-0.409c0.16-.122.31-0.3,0.49-0.41a7.353,7.353,0,0,1,1.26-.613c0.23-.061.47-0.122,0.7-0.182A1.09,1.09,0,0,0,1352.56,528.736Zm1.87,5.435h3.46a18.784,18.784,0,0,1,1.92.022,1.343,1.343,0,0,1,.16.16,2.06,2.06,0,0,1-.19,1.046,5.038,5.038,0,0,1-1.52,2.251,1.94,1.94,0,0,1-1.07-.8c-0.62-.606-1.25-1.213-1.87-1.819A7.143,7.143,0,0,1,1354.43,534.171Z" transform="translate(-1348 -528)"/>
</svg>
