<svg xmlns="http://www.w3.org/2000/svg" width="20" height="20" viewBox="0 0 20 20">
  <defs>
    <style>
      .cls-1 {
        fill: #72608a;
        fill-rule: evenodd;
      }
    </style>
  </defs>
  <path id="copy_714" data-name="copy 714" class="cls-1" d="M762.555,199.178c3.957-.045,10.435-1.052,11.063,2.26v1.716a1.024,1.024,0,0,1-1.362.376c-0.676-.441-0.115-1.993-0.808-2.427-0.645-.405-9.17-0.11-9.4.209a52.327,52.327,0,0,0-.043,9.082c0.442,0.682,2.023.128,2.468,0.795a0.963,0.963,0,0,1-.51,1.381c-4.546,1.208-3.915-3.919-3.915-7.366,0-1.569-.238-3.719.383-4.729A3.289,3.289,0,0,1,762.555,199.178Zm6.127,6.277c2.563-.025,8.926-0.523,10.339.545a2.892,2.892,0,0,1,.979,1.59v9.082a2.911,2.911,0,0,1-1.021,1.632c-0.959.715-9.4,0.966-10.935,0.335a2.835,2.835,0,0,1-1.532-1.674,52.068,52.068,0,0,1,.085-9.877A3.092,3.092,0,0,1,768.682,205.455Zm0.426,1.758a1.126,1.126,0,0,0-.851.628v8.58a1.009,1.009,0,0,0,.723.627c1.043,0.222,8.441.155,8.893-.167s0.553-8.961.085-9.417C777.383,206.906,770.581,207.2,769.108,207.213Z" transform="translate(-760 -199)"/>
</svg>
