<svg 
 xmlns="http://www.w3.org/2000/svg"
 xmlns:xlink="http://www.w3.org/1999/xlink"
 width="20px" height="20px">
<path fill-rule="evenodd"  fill="rgb(114, 96, 138)"
 d="M2.555,0.177 C6.511,0.133 12.989,0.873 13.617,2.437 C13.617,3.9 13.617,3.581 13.617,4.153 C13.440,4.526 12.747,4.850 12.256,4.530 C11.580,4.89 12.140,2.537 11.447,2.102 C10.803,1.698 2.277,1.993 2.44,2.312 C1.796,2.652 1.725,10.966 2.2,11.394 C2.443,12.75 4.25,11.522 4.470,12.189 C4.826,12.723 4.421,13.447 3.959,13.570 C0.586,14.778 0.45,9.651 0.45,6.204 C0.45,4.634 0.192,2.484 0.428,1.475 C0.906,0.696 1.579,0.495 2.555,0.177 ZM8.682,6.455 C11.244,6.430 17.607,5.931 19.21,6.999 C19.464,7.334 19.863,7.966 19.999,8.590 C19.999,11.617 19.999,14.644 19.999,17.671 C19.857,18.325 19.444,18.956 18.978,19.304 C18.19,20.19 9.580,20.270 8.44,19.638 C7.365,19.360 6.737,18.686 6.512,17.964 C6.209,16.995 6.274,8.841 6.597,8.87 C6.994,7.160 7.703,6.829 8.682,6.455 ZM9.107,8.213 C8.715,8.363 8.388,8.447 8.256,8.841 C8.256,11.700 8.256,14.561 8.256,17.420 C8.351,17.716 8.656,17.979 8.980,18.48 C10.23,18.270 17.420,18.202 17.872,17.881 C18.316,17.564 18.426,8.919 17.957,8.464 C17.382,7.905 10.580,8.194 9.107,8.213 Z"/>
</svg>