<svg 
 xmlns="http://www.w3.org/2000/svg"
 xmlns:xlink="http://www.w3.org/1999/xlink"
 width="15px" height="21px">
<path fill-rule="evenodd"  fill="rgb(234, 183, 5)"
 d="M7.25,3.710 C7.341,3.677 7.658,3.645 7.974,3.612 C7.974,3.482 7.974,3.352 7.974,3.221 C8.37,3.221 8.101,3.221 8.164,3.221 C8.481,3.928 12.416,3.527 12.816,3.710 C12.911,3.742 13.6,3.775 13.101,3.807 C13.101,3.905 13.101,4.3 13.101,4.100 C13.734,4.68 14.367,4.35 14.999,4.3 C14.999,4.100 14.999,4.198 14.999,4.296 C13.396,4.279 12.20,4.306 10.632,4.589 C10.463,5.56 10.212,4.933 10.158,5.565 C10.280,5.736 10.317,5.978 10.348,6.249 C10.150,6.285 10.165,6.273 10.63,6.347 C9.907,6.571 9.839,7.20 9.778,7.323 C9.490,7.466 9.143,7.683 8.923,7.909 C8.264,7.652 7.668,7.313 7.25,7.128 C7.25,7.291 7.25,7.454 7.25,7.616 C7.799,7.897 7.280,9.683 7.120,10.253 C6.693,10.238 6.681,10.131 6.550,10.351 C6.321,10.807 6.997,11.307 7.215,11.621 C7.537,12.86 8.400,14.7 8.544,14.551 C8.843,15.680 7.887,18.280 8.354,19.43 C8.579,19.749 9.200,19.979 9.778,20.313 C9.718,20.484 9.760,20.408 9.683,20.508 C9.488,20.832 8.568,20.728 8.69,20.703 C7.776,20.477 7.239,20.610 7.25,20.508 C6.731,20.389 6.810,20.471 6.740,20.117 C7.442,19.57 6.701,17.308 6.550,16.113 C6.519,15.864 6.826,15.420 6.835,14.941 C6.544,14.793 6.377,14.937 6.75,14.746 C5.673,14.491 5.545,13.644 5.221,13.281 C4.935,12.960 4.749,13.254 4.462,12.695 C4.385,12.795 4.428,12.722 4.367,12.890 C4.64,13.193 3.762,13.728 3.607,14.160 C3.544,14.485 3.480,14.811 3.417,15.136 C3.354,15.136 3.291,15.136 3.227,15.136 C3.88,15.288 2.736,15.768 2.658,15.918 C2.503,16.215 2.652,16.470 2.658,16.699 C2.658,16.715 2.69,18.333 1.993,18.457 C1.898,18.490 1.803,18.522 1.708,18.555 C1.554,18.711 1.383,19.210 1.329,19.434 C1.360,19.955 1.392,20.476 1.423,20.996 C0.786,20.999 0.703,21.4 0.94,20.996 C0.14,20.757 0.3,20.392 0.0,20.20 C0.216,19.687 0.469,18.812 0.379,18.262 C0.371,18.212 0.225,17.977 0.284,17.773 C0.413,17.330 0.877,16.46 1.139,15.625 C1.239,15.464 1.532,15.225 1.613,15.39 C1.659,14.934 1.855,12.926 1.898,12.597 C1.912,12.494 1.720,12.353 1.708,12.304 C1.559,11.690 1.852,11.395 1.993,11.35 C1.961,10.416 1.930,9.797 1.898,9.179 C1.957,9.16 2.173,8.914 2.278,8.788 C2.38,8.781 1.925,8.777 1.803,8.691 C1.686,8.511 1.700,8.134 1.708,7.812 C1.855,7.586 1.815,7.20 1.803,6.640 C2.166,6.641 2.398,6.597 2.658,6.542 C2.658,6.477 2.658,6.412 2.658,6.347 C2.87,5.507 3.80,3.690 3.607,3.514 C3.891,3.262 4.426,3.418 4.651,3.319 C4.683,3.319 4.715,3.319 4.746,3.319 C4.488,2.690 4.676,2.272 4.841,1.659 C5.66,1.492 5.328,1.161 5.601,1.73 C6.495,0.784 7.347,1.389 7.404,2.49 C7.532,2.244 7.509,2.685 7.499,3.26 C7.86,3.128 7.34,3.181 7.25,3.710 ZM8.923,4.784 C8.820,5.218 8.568,5.175 8.639,5.468 C8.694,5.687 8.710,5.727 8.829,5.858 C8.829,5.826 8.829,5.793 8.829,5.761 C9.85,5.575 9.181,5.296 9.398,5.77 C9.398,5.12 9.398,4.947 9.398,4.882 C9.246,4.827 9.170,4.803 8.923,4.784 Z"/>
</svg>