<svg 
 xmlns="http://www.w3.org/2000/svg"
 xmlns:xlink="http://www.w3.org/1999/xlink"
 width="25px" height="19px">
<path fill-rule="evenodd"  fill="rgb(242, 242, 243)"
 d="M13.303,0.1 C10.511,0.859 10.762,1.551 9.57,2.915 C8.491,3.368 5.830,3.675 4.860,3.580 C5.26,3.179 5.130,2.644 5.10,2.199 C4.828,1.915 4.400,1.701 3.961,1.688 C3.647,1.658 3.361,1.807 3.211,1.842 C2.530,3.46 0.213,12.181 0.13,12.936 C0.149,13.366 1.140,13.629 1.612,13.141 C2.578,10.312 3.344,7.994 4.310,5.165 C5.771,5.300 7.100,5.164 8.257,4.807 C6.515,9.646 12.177,7.704 13.703,5.829 C15.81,6.517 20.326,10.354 19.799,12.271 C19.430,12.570 19.440,12.620 18.899,12.783 C18.357,12.81 15.916,9.214 15.102,9.102 C14.969,9.221 14.636,9.494 14.503,9.613 C14.519,9.783 14.336,10.107 14.353,10.278 C15.418,11.402 16.485,12.527 17.550,13.652 C17.371,14.445 17.411,14.232 16.651,14.419 C15.927,13.921 12.0,9.675 11.305,11.607 C11.922,12.968 13.829,14.524 14.952,15.441 C14.822,16.273 14.596,16.438 13.703,16.464 C12.571,15.322 11.438,14.180 10.306,13.38 C9.884,13.1 9.604,13.306 9.506,13.447 C9.440,13.567 9.373,13.686 9.307,13.805 C9.544,15.248 11.543,16.13 12.204,17.180 C8.509,18.914 6.561,9.822 3.211,11.914 C2.995,12.82 2.890,12.555 3.211,13.141 C6.572,13.708 6.838,17.577 9.656,18.816 C11.231,19.508 14.767,18.74 15.852,17.180 C16.68,16.822 16.285,16.464 16.501,16.106 C17.67,15.634 17.900,15.749 18.400,15.237 C18.583,14.896 18.766,14.555 18.949,14.214 C19.656,13.691 20.376,13.981 20.898,13.294 C21.81,12.817 21.264,12.340 21.447,11.862 C22.80,11.709 22.713,11.556 23.346,11.402 C23.438,11.881 23.608,12.249 23.896,12.527 C24.367,12.504 25.61,12.42 24.995,11.505 C24.869,10.483 21.654,1.366 21.348,1.228 C20.958,1.112 20.239,1.446 20.98,1.739 C20.981,4.500 21.864,7.108 22.746,9.869 C22.696,9.886 22.647,9.903 22.597,9.920 C21.980,10.90 21.414,10.158 20.798,10.329 C20.115,8.506 18.67,7.66 16.651,5.932 C16.160,5.538 15.317,5.310 15.52,4.705 C15.245,4.510 15.276,4.333 15.202,3.989 C15.69,3.904 14.886,3.767 14.752,3.682 C12.758,4.116 12.582,6.616 9.756,6.239 C9.690,6.119 9.623,6.0 9.556,5.881 C9.385,5.69 10.148,4.207 10.506,3.682 C11.927,1.597 13.423,0.772 16.751,1.790 C17.485,2.15 17.946,2.340 18.749,2.302 C18.833,2.199 18.866,1.995 18.949,1.893 C18.916,1.722 18.883,1.552 18.849,1.381 C17.936,0.174 15.380,0.19 13.303,0.1 Z"/>
</svg>