<svg 
 xmlns="http://www.w3.org/2000/svg"
 xmlns:xlink="http://www.w3.org/1999/xlink"
 width="16px" height="16px">
<path fill-rule="evenodd"  fill="rgb(252, 10, 16)"
 d="M15.939,15.520 C15.503,15.482 14.831,14.964 14.237,15.269 C14.241,15.313 14.245,15.356 14.248,15.400 C14.295,15.404 14.342,15.407 14.389,15.411 C14.400,15.451 14.411,15.491 14.422,15.531 C14.251,15.535 14.209,15.600 14.107,15.629 C13.555,15.603 13.2,15.578 12.449,15.553 C12.319,15.502 12.189,15.451 12.59,15.400 C11.614,15.818 10.81,15.521 9.306,15.629 C8.975,15.675 8.807,15.857 8.547,15.934 C8.335,15.997 8.268,15.834 8.190,15.727 C7.430,15.856 7.522,15.376 6.922,15.999 C6.670,15.875 6.502,15.620 6.402,15.345 C6.242,15.351 6.218,15.418 6.120,15.476 C5.516,15.280 4.782,15.298 4.82,15.378 C3.963,15.356 3.844,15.335 3.725,15.313 C3.584,15.324 3.443,15.335 3.302,15.345 C3.162,15.364 3.92,15.297 2.998,15.280 C2.894,15.295 2.789,15.309 2.684,15.324 C2.377,15.320 2.70,15.316 1.763,15.313 C1.150,15.316 0.623,15.381 0.159,15.160 C0.184,14.811 0.209,14.463 0.235,14.114 C0.176,13.642 0.60,12.947 0.148,12.414 C0.184,12.194 0.357,12.113 0.441,11.956 C0.546,11.758 0.633,10.876 0.592,10.572 C0.550,10.258 0.300,10.280 0.224,10.38 C0.188,9.467 0.152,8.897 0.116,8.326 C0.447,8.311 0.717,7.983 0.582,7.542 C0.520,7.340 0.323,7.242 0.278,6.964 C0.225,6.632 0.408,6.419 0.354,6.59 C0.256,5.409 0.97,4.919 0.7,4.206 C0.30,3.905 0.80,3.682 0.126,3.465 C0.214,3.55 0.200,2.664 0.257,2.212 C0.348,1.477 0.8,0.923 0.246,0.326 C1.58,0.327 1.944,0.238 2.793,0.337 C3.154,0.334 3.515,0.330 3.876,0.326 C4.107,0.360 4.151,0.460 4.277,0.501 C4.718,0.512 5.159,0.523 5.600,0.533 C5.859,0.493 6.156,0.328 6.358,0.196 C6.438,0.130 6.517,0.65 6.597,0.0 C7.399,0.10 8.201,0.21 9.3,0.32 C9.6,0.43 9.10,0.54 9.13,0.65 C8.981,0.137 8.948,0.210 8.916,0.283 C9.66,0.374 9.349,0.329 9.545,0.370 C9.567,0.733 10.181,0.773 10.455,0.577 C10.454,0.385 10.496,0.169 10.617,0.98 C10.880,0.56 13.243,0.131 13.587,0.228 C13.620,0.337 13.652,0.446 13.685,0.555 C13.861,0.492 13.893,0.270 14.53,0.228 C14.193,0.192 14.262,0.306 14.378,0.326 C14.728,0.388 15.137,0.260 15.419,0.381 C15.491,0.443 15.563,0.504 15.635,0.566 C15.718,0.592 15.802,0.617 15.885,0.643 C16.35,0.808 15.782,1.410 15.820,1.612 C15.955,2.336 16.76,3.628 15.939,4.479 C15.924,4.755 15.910,5.31 15.895,5.307 C15.831,5.446 15.590,5.478 15.484,5.580 C15.509,5.682 15.534,5.783 15.559,5.885 C15.458,6.23 15.357,6.161 15.256,6.299 C15.329,6.553 15.524,6.686 15.625,6.899 C15.827,7.328 15.812,8.289 15.690,8.839 C15.559,8.891 15.460,8.922 15.419,9.68 C15.422,9.71 15.426,9.75 15.429,9.78 C15.599,9.82 15.769,9.86 15.939,9.89 C15.875,9.484 16.23,9.880 15.971,10.245 C15.893,10.802 15.928,11.506 15.928,12.130 C15.928,13.296 15.938,14.378 15.939,15.520 ZM2.879,2.637 C2.634,2.742 2.388,2.848 2.142,2.953 C2.27,2.982 1.911,3.11 1.795,3.40 C1.910,3.380 2.207,3.524 2.413,3.771 C2.923,4.294 3.432,4.817 3.941,5.340 C4.188,5.611 4.395,5.902 4.657,6.157 C5.47,6.543 5.437,6.928 5.827,7.313 C6.235,7.763 6.644,8.214 7.52,8.664 C7.544,9.139 7.985,9.695 8.493,10.147 C8.652,10.274 8.811,10.401 8.970,10.528 C9.39,10.637 9.107,10.746 9.176,10.855 C9.606,11.309 10.36,11.763 10.466,12.217 C10.667,12.460 10.900,12.840 11.192,12.980 C11.423,13.92 12.962,13.263 13.175,13.89 C13.533,12.797 14.123,10.800 14.161,10.103 C13.868,9.991 13.662,9.752 13.424,9.580 C13.222,9.438 13.20,9.296 12.818,9.155 C12.724,9.133 12.630,9.111 12.536,9.89 C12.352,8.933 12.167,8.777 11.983,8.621 C9.753,7.269 7.757,5.709 5.491,4.370 C5.437,4.312 5.383,4.254 5.329,4.196 C5.137,4.60 4.878,4.59 4.743,3.869 C4.711,3.785 4.678,3.702 4.646,3.618 C4.288,3.404 3.930,3.189 3.573,2.975 C3.340,2.834 3.277,2.635 2.879,2.637 ZM11.864,2.735 C11.643,2.885 11.319,2.902 11.29,2.986 C10.520,3.124 10.10,3.262 9.501,3.400 C9.608,3.646 9.934,3.780 10.141,3.934 C10.693,4.345 11.221,4.794 11.799,5.198 C12.25,5.357 12.265,5.669 12.601,5.656 C12.680,5.602 13.43,3.644 12.980,3.356 C12.582,3.195 12.303,2.845 11.864,2.735 ZM3.9,9.547 C2.728,10.216 2.446,10.884 2.164,11.553 C2.92,11.706 1.920,12.101 2.66,12.316 C2.141,12.425 2.535,12.640 2.663,12.730 C2.868,12.911 3.74,13.93 3.280,13.275 C3.410,13.282 3.540,13.289 3.670,13.296 C4.392,13.299 4.494,13.143 4.993,13.13 C5.250,12.946 6.149,12.752 6.206,12.588 C5.459,11.872 4.711,11.157 3.963,10.441 C3.668,10.191 3.387,9.683 3.9,9.547 Z"/>
</svg>