<svg 
 xmlns="http://www.w3.org/2000/svg"
 xmlns:xlink="http://www.w3.org/1999/xlink"
 width="26px" height="20px">
<path fill-rule="evenodd"  fill="rgb(114, 96, 138)"
 d="M6.923,0.1 C9.718,0.88 11.841,2.558 10.306,5.72 C8.903,7.370 5.20,7.12 4.174,4.445 C2.671,4.509 0.441,4.940 0.51,3.33 C0.341,1.909 2.740,2.188 4.174,2.249 C4.633,0.902 5.551,0.468 6.923,0.1 ZM7.81,2.249 C6.93,2.741 5.921,4.898 7.663,4.445 C8.906,4.121 8.694,2.138 7.81,2.249 ZM12.685,2.249 C16.896,2.267 21.108,2.284 25.319,2.301 C25.686,2.456 26.128,2.994 25.953,3.661 C25.865,3.997 25.502,4.360 25.160,4.445 C20.949,4.427 16.737,4.410 12.526,4.393 C11.441,3.936 11.966,2.666 12.685,2.249 ZM17.72,6.693 C19.127,6.638 20.120,7.563 20.720,8.941 C22.342,8.883 26.478,8.299 25.953,10.352 C25.639,11.581 22.284,11.192 20.720,11.137 C19.853,13.159 16.614,14.360 14.905,12.234 C12.980,9.840 14.820,7.433 17.72,6.693 ZM0.844,8.941 C4.685,8.958 8.527,8.976 12.368,8.993 C12.696,9.149 13.155,9.687 13.2,10.300 C12.919,10.633 12.539,11.49 12.209,11.137 C8.368,11.119 4.526,11.102 0.685,11.84 C0.398,10.628 0.123,9.357 0.844,8.941 ZM17.231,8.941 C16.242,9.432 16.71,11.590 17.812,11.137 C19.55,10.813 18.844,8.830 17.231,8.941 ZM9.143,13.385 C11.963,13.295 14.124,15.937 12.526,18.508 C10.984,20.990 7.456,20.99 6.394,17.828 C4.666,17.881 0.491,18.557 0.51,16.417 C0.383,15.108 4.714,15.582 6.394,15.633 C7.22,14.320 7.709,13.921 9.143,13.385 ZM9.354,15.633 C8.390,16.112 8.170,18.259 9.883,17.828 C11.131,17.515 10.949,15.527 9.354,15.633 ZM14.905,15.633 C18.376,15.650 21.848,15.667 25.319,15.685 C25.686,15.839 26.128,16.377 25.953,17.44 C25.865,17.380 25.502,17.744 25.160,17.828 C21.742,17.828 18.323,17.828 14.905,17.828 C13.682,17.461 14.191,16.124 14.905,15.633 Z"/>
</svg>