<svg xmlns="http://www.w3.org/2000/svg" width="26.97" height="27" viewBox="0 0 26.97 27">
  <defs>
    <style>
      .cls-1 {
        fill: #f2f2f3;
        fill-rule: evenodd;
      }
    </style>
  </defs>
  <path id="settings_659" data-name="settings 659" class="cls-1" d="M1188.63,373c6.24-.043,1.95,3.471,4.62,4.6,2.04,0.859,2.92-2.972,4.9-1.569,5.08,3.592-.77,4.249.28,6.782,0.64,1.541,3.86.425,4.46,1.962,0.04,0.672.07,1.345,0.11,2.018-0.03,3.844-3.7,1.132-4.57,3.307-0.94,2.359,3.58,2.825.95,5.549l-1.5,1.4c-2.01.877-2.83-2.932-4.85-1.625-1.59,1.03.08,4.13-2.39,4.484-5.68.814-2.18-3.9-4.79-4.652-1.94-.551-2.68,2.827-4.57,1.737-5.31-3.058.5-4.576-.45-6.894-0.66-1.632-4.04-.339-4.51-2.186-1.48-5.851,3.56-2.815,4.51-5.1,0.85-2.02-2.37-2.532-1.78-4.484,0.45-.523.89-1.046,1.34-1.57,2.89-2.863,3.44,2.05,5.73.785C1187.89,376.563,1185.96,373.9,1188.63,373Zm0.39,8.912a5.717,5.717,0,0,0-2.67,1.345c-2.52,2.831-.74,8.545,3.95,7.736A4.587,4.587,0,0,0,1189.02,381.912Z" transform="translate(-1176.03 -373)"/>
</svg>
