<svg xmlns="http://www.w3.org/2000/svg" width="18" height="19" viewBox="0 0 18 19">
  <defs>
    <style>
      .cls-1 {
        fill: #f3f3f4;
        fill-rule: evenodd;
      }
    </style>
  </defs>
  <path id="google_996" data-name="google 996" class="cls-1" d="M1101.17,538.386h-4.95V534.71h8.65c0.62,4.961-1.02,8.249-3.98,10.094a9.575,9.575,0,0,1-2.34.933c-0.53.151-.99,0.045-1.59,0.175a6.791,6.791,0,0,1-3.3-.35,9.509,9.509,0,0,1-5.52-4.434,11.012,11.012,0,0,1-.91-2.45,9.309,9.309,0,0,1,.12-4.551,9.185,9.185,0,0,1,5.63-6.418,7.976,7.976,0,0,1,4.49-.583,10.67,10.67,0,0,1,3.36,1.167c0.55,0.348,1.01.864,1.54,1.225v0.058h-0.06a13.3,13.3,0,0,1-1.88,1.925,1.732,1.732,0,0,1-.79.7c-0.71-1.1-3.41-1.756-5.12-1.109a5.782,5.782,0,0,0,.39,10.969,4.926,4.926,0,0,0,2.11.058,8.059,8.059,0,0,0,1.25-.233A4.407,4.407,0,0,0,1101.17,538.386Z" transform="translate(-1087 -527)"/>
</svg>
