<svg xmlns="http://www.w3.org/2000/svg" width="20" height="20" viewBox="0 0 20 20">
  <defs>
    <style>
      .cls-1 {
        fill: #72608a;
        fill-rule: evenodd;
      }
    </style>
  </defs>
  <path id="info_1" data-name="info 1" class="cls-1" d="M1619.27,345.009a1.359,1.359,0,0,1,1.44.479c-0.02.223-.04,0.446-0.05,0.67-0.57.493-1.6,0.361-2.49,0.574a8.444,8.444,0,0,0,.67,16.609c6.71,1.086,11.92-6.585,8.51-12.493a9.02,9.02,0,0,0-3.25-3.254c-0.48-.208-0.96-0.415-1.43-0.623a0.876,0.876,0,0,1-.29-0.718,0.947,0.947,0,0,1,.57-0.622,2.75,2.75,0,0,1,1.87.67c2.79,1.632,5.82,4.962,5.06,9.86-0.71,4.58-4.8,9.527-10.65,8.76-6.32-.828-11.42-6.956-8.27-14.121a9.836,9.836,0,0,1,6.21-5.408Zm0.29,3.063c5.26-.13,5.38,5.984,1.19,7.515,0.06,1.321.37,3.125-.9,3.207-0.7-.344-1.08-3.341-0.43-4.212,0.79-1.074,3.21-.668,2.86-2.92a2.35,2.35,0,0,0-3.68-1.579c-0.78.6-.7,1.947-1.43,2.584l-0.57-.048C1614.7,350.688,1618.17,348.542,1619.56,348.072Zm0.24,12.254a1.077,1.077,0,0,1,.81.287,1.187,1.187,0,0,1,.05.909c-0.14.1-.29,0.192-0.43,0.287a0.7,0.7,0,0,1-.96-0.478c0.02-.223.03-0.447,0.05-0.67Z" transform="translate(-1610 -345)"/>
</svg>
