<svg id="lost_key" data-name="lost key" xmlns="http://www.w3.org/2000/svg" width="19.03" height="18.562" viewBox="0 0 19.03 18.562">
  <defs>
    <style>
      .cls-1, .cls-2 {
        fill: #72608a;
      }

      .cls-1 {
        fill-rule: evenodd;
      }

      .cls-2 {
        font-size: 18px;
        font-family: "Brisa Sans";
        font-weight: 700;
      }
    </style>
  </defs>
  <path id="key_978" data-name="key 978" class="cls-1" d="M1100.22,443.617a10.58,10.58,0,0,1-1.91.934,2.167,2.167,0,0,1-.56-0.357c-0.9-.426-0.37-1.389-0.22-1.908l1.44-.834c-0.73-1.273-1.47-2.547-2.2-3.82-3.39,1.549-7.16-1.631-6.81-5.412,0.1-1.057.9-1.7,1.84-2.587a7.218,7.218,0,0,1,3.22-1.693c2.55-.342,5.72,3.094,5.29,6.119-0.1.658-1.33,1.757-1.38,2.156q1.935,3.375,3.89,6.75c-0.25.92-.38,1.406-1.54,1.571a2.64,2.64,0,0,0-.69-0.282C1100.47,444.041,1100.34,443.829,1100.22,443.617Zm-2.89-12.593c-0.15-.061-0.41-0.3-0.56-0.358-0.65-.639-1.16-0.425-1.91-0.591a9.99,9.99,0,0,0-2.62,1.847,5.21,5.21,0,0,0,.98,3.512,7.607,7.607,0,0,1,.84.536c0.42,0.036.85,0.071,1.28,0.106,1.55-.75,2.69-1.4,2.77-2.787A3.744,3.744,0,0,0,1097.33,431.024Z" transform="translate(-1089.97 -426)"/>
  <text id="_" data-name="?" class="cls-2" x="10.61" y="13.165">?</text>
</svg>
