<svg id="lost_key" data-name="lost key" xmlns="http://www.w3.org/2000/svg" width="18.19" height="18.312" viewBox="0 0 18.19 18.312">
  <defs>
    <style>
      .cls-1 {
        fill: #72608a;
        fill-rule: evenodd;
      }
    </style>
  </defs>
  <path id="key_978" data-name="key 978" class="cls-1" d="M1100.22,443.617a10.58,10.58,0,0,1-1.91.934,2.167,2.167,0,0,1-.56-0.357c-0.9-.426-0.37-1.389-0.22-1.908l1.44-.834c-0.73-1.273-1.47-2.547-2.2-3.82-3.39,1.549-7.16-1.631-6.81-5.412,0.1-1.057.9-1.7,1.84-2.587a7.218,7.218,0,0,1,3.22-1.693c2.55-.342,5.72,3.094,5.29,6.119-0.1.658-1.33,1.757-1.38,2.156q1.935,3.375,3.89,6.75c-0.25.92-.38,1.406-1.54,1.571a2.64,2.64,0,0,0-.69-0.282C1100.47,444.041,1100.34,443.829,1100.22,443.617Zm-2.89-12.593c-0.15-.061-0.41-0.3-0.56-0.358-0.65-.639-1.16-0.425-1.91-0.591a9.99,9.99,0,0,0-2.62,1.847,5.21,5.21,0,0,0,.98,3.512,7.607,7.607,0,0,1,.84.536c0.42,0.036.85,0.071,1.28,0.106,1.55-.75,2.69-1.4,2.77-2.787A3.744,3.744,0,0,0,1097.33,431.024Z" transform="translate(-1089.97 -426.25)"/>
  <path id="_" data-name="?" class="cls-1" d="M1104.93,435.1h-2.54a3.168,3.168,0,0,1,.16-1.063,4.483,4.483,0,0,1,1.5-2.16c1.02-.937,1.44-1.387,1.44-2.089,0-.756-0.49-1.35-1.66-1.35a4.6,4.6,0,0,0-2.76,1.134l-1.06-1.657a5.443,5.443,0,0,1,3.98-1.656c2.38,0,4.18,1.368,4.18,3.511a3.056,3.056,0,0,1-1.14,2.4C1105.83,433.222,1105.09,433.726,1104.93,435.1Zm-1.26,4.249a1.457,1.457,0,0,1-1.61-1.441A1.614,1.614,0,1,1,1103.67,439.344Z" transform="translate(-1089.97 -426.25)"/>
</svg>
