<svg 
 xmlns="http://www.w3.org/2000/svg"
 xmlns:xlink="http://www.w3.org/1999/xlink"
 width="16px" height="15px">
<path fill-rule="evenodd"  fill="rgb(114, 96, 138)"
 d="M14.88,0.4 C14.508,0.35 14.815,0.197 14.923,0.531 C15.114,1.117 14.918,5.683 14.680,5.869 C12.988,7.186 13.627,3.438 13.427,2.603 C13.416,2.614 13.404,2.626 13.392,2.638 C11.467,4.593 9.541,6.548 7.616,8.503 C7.253,8.869 6.50,10.462 5.389,9.451 C4.839,8.608 6.339,7.650 6.712,7.273 C8.602,5.365 10.493,3.457 12.383,1.549 C11.450,1.308 8.369,2.88 9.43,0.460 C9.410,0.427 12.950,0.296 14.88,0.4 ZM1.945,2.287 C3.205,2.276 8.81,1.747 7.477,3.305 C7.78,4.337 3.292,3.396 2.84,3.797 C1.890,3.861 1.660,4.93 1.597,4.288 C1.400,4.892 1.558,12.999 1.701,13.208 C1.713,13.208 1.724,13.208 1.736,13.208 C1.949,13.488 9.760,13.806 10.713,13.489 C10.907,13.425 11.137,13.193 11.200,12.998 C11.603,11.760 10.609,7.785 11.792,7.519 C12.201,7.427 12.559,7.716 12.662,7.941 C12.662,9.732 12.662,11.523 12.662,13.314 C12.553,13.733 12.264,14.230 11.966,14.473 C11.595,14.648 11.223,14.824 10.852,14.999 C7.779,14.976 4.705,14.953 1.632,14.929 C0.971,14.709 0.387,14.123 0.170,13.454 C0.97,12.628 0.29,4.304 0.240,3.656 C0.566,2.873 1.141,2.604 1.945,2.287 Z"/>
</svg>