<svg xmlns="http://www.w3.org/2000/svg" width="14" height="14" viewBox="0 0 14 14">
  <defs>
    <style>
      .cls-1 {
        fill: #fff;
        fill-rule: evenodd;
      }
    </style>
  </defs>
  <path id="login_971" data-name="login 971" class="cls-1" d="M827.546,442a8.016,8.016,0,0,1-3.519-.62,1.169,1.169,0,0,1-.906-0.692,4.1,4.1,0,0,1,0-1.511,0.793,0.793,0,0,1,1.015-.511,15.284,15.284,0,0,0,1.451.62c0.3,0.089.546,0.037,0.871,0.11a3.008,3.008,0,0,0,1.015.036c0.375-.082.769-0.1,1.125-0.219,1.125-.37,1.13-0.089,1.756-0.969a6.143,6.143,0,0,0,.8-1.605c1-3.073-.01-4.785-1.974-5.638a8.261,8.261,0,0,0-1.415-.4,5.41,5.41,0,0,0-3.518.693,0.883,0.883,0,0,1-1.052-.256,3.713,3.713,0,0,1,.036-1.839,2.954,2.954,0,0,1,1.669-.875,7.183,7.183,0,0,1,6.094.912,7.323,7.323,0,0,1,2.72,3.9,7.146,7.146,0,0,1-1.124,5.981,4.636,4.636,0,0,1-.834,1.021A9.358,9.358,0,0,1,829.4,441.6a10.743,10.743,0,0,1-1.27.329A2.255,2.255,0,0,0,827.546,442Zm-3.664-3.866c-0.188-.06-1.367-0.079-1.508-0.182-0.972-.714.619-1.727,0.907-2.152h-2.518a0.91,0.91,0,0,1-.653-0.4,0.976,0.976,0,0,1,0-.875,1.861,1.861,0,0,1,.4-0.292l1.233-.037h1.539v-0.036a5.771,5.771,0,0,1-1.16-1.24c-0.229-.569,1.312-1.021,1.761-1.058a1.47,1.47,0,0,1,.943.693l2,1.97a1.7,1.7,0,0,0,.109.218,1.594,1.594,0,0,1-.8,1.386l-1.813,1.86C824.2,438.066,824.008,438.049,823.882,438.13Z" transform="translate(-820 -428)"/>
</svg>
