<svg 
 xmlns="http://www.w3.org/2000/svg"
 xmlns:xlink="http://www.w3.org/1999/xlink"
 width="31px" height="26px">
<path fill-rule="evenodd"  fill="rgb(114, 96, 138)"
 d="M28.586,0.96 C21.252,0.96 13.917,0.96 6.583,0.96 C4.159,0.96 0.449,0.674 0.35,2.160 C0.420,4.415 4.423,3.708 7.20,3.708 C10.494,3.707 36.334,5.480 28.586,0.96 ZM17.410,11.102 C13.905,11.27 0.530,9.924 0.35,13.166 C0.150,13.826 0.739,14.542 1.345,14.714 C6.699,14.714 12.55,14.714 17.410,14.714 C19.429,14.110 18.591,11.909 17.410,11.102 ZM28.586,22.109 C21.252,22.109 13.917,22.109 6.583,22.109 C4.159,22.108 0.449,21.337 0.35,24.172 C0.420,26.427 4.423,25.720 7.20,25.720 C10.494,25.720 36.334,27.492 28.586,22.109 Z"/>
</svg>