<svg xmlns="http://www.w3.org/2000/svg" xmlns:xlink="http://www.w3.org/1999/xlink" width="13" height="13" viewBox="0 0 13 13">
  <defs>
    <style>
      .cls-1 {
        fill: #f2f2f3;
        fill-rule: evenodd;
        filter: url(#filter);
      }
    </style>
    <filter id="filter" x="1346" y="261" width="13" height="13" filterUnits="userSpaceOnUse">
      <feFlood result="flood" flood-color="#acacbf"/>
      <feComposite result="composite" operator="in" in2="SourceGraphic"/>
      <feBlend result="blend" in2="SourceGraphic"/>
    </filter>
  </defs>
  <path id="money_751" data-name="money 751" class="cls-1" d="M1355.66,261a1.73,1.73,0,0,1,1.18.319c0.63,0.5,1.86,3.561,2.11,4.5l-0.21.29c-0.49-.04-0.67-0.384-1.18-0.464h-10.07a3.938,3.938,0,0,1-1.21.406c-0.56-.956,1.38-1.5,1.99-1.77C1350.73,263.186,1353.2,262.093,1355.66,261Zm-8.23,5.57h7.74c1.1,0,2.57-.166,3.2.32,0.81,0.624.6,2.282,0.6,3.714a6.515,6.515,0,0,1-.2,2.611,1.761,1.761,0,0,1-.89.725l-8.64.058c-1.38,0-2.45.085-2.96-.783a17.434,17.434,0,0,1-.09-5.687A1.865,1.865,0,0,1,1347.43,266.57Zm-0.03.929a0.824,0.824,0,0,0-.37.377,0.478,0.478,0,0,0,.54.551,0.507,0.507,0,0,0,.35-0.667A0.582,0.582,0,0,0,1347.4,267.5Zm1.96,0a3.26,3.26,0,0,0-.98,1.19,4.733,4.733,0,0,0-1.3,1.131c-0.48,1.206.81,1.532,1.3,2.06a4.566,4.566,0,0,0,.72,1.1,37.306,37.306,0,0,0,6.82.029c0.45-.2.54-0.917,0.87-1.248a3.634,3.634,0,0,0,1.21-1.015c0.44-1.129-.63-1.445-1.16-1.886-0.41-.343-0.46-1.143-1-1.335Zm2.91,0.928a1.876,1.876,0,0,1,.52,3.714C1350.49,272.521,1349.85,269.312,1352.27,268.427Zm5.24,3.714a0.8,0.8,0,0,0-.38.377,0.54,0.54,0,0,0,.38.552,0.5,0.5,0,0,0,.54-0.407A0.474,0.474,0,0,0,1357.51,272.141Z" transform="translate(-1346 -261)"/>
</svg>
