<svg 
 xmlns="http://www.w3.org/2000/svg"
 xmlns:xlink="http://www.w3.org/1999/xlink"
 width="20px" height="19px">
<path fill-rule="evenodd"  fill="rgb(114, 96, 138)"
 d="M15.571,0.0 C18.47,0.36 20.100,2.240 18.734,4.610 C14.297,9.33 9.860,13.458 5.423,17.882 C4.941,18.189 0.720,19.151 0.278,18.860 C0.530,18.327 0.627,13.850 1.175,13.271 C3.975,10.524 6.777,7.776 9.577,5.29 C11.388,3.243 12.935,0.946 15.571,0.0 ZM9.766,16.997 C12.991,17.28 16.217,17.59 19.442,17.90 C19.736,17.237 20.124,17.727 19.961,18.301 C19.879,18.591 19.509,18.926 19.206,18.999 C16.28,18.999 12.849,18.999 9.671,18.999 C8.466,18.693 8.934,17.365 9.766,16.997 Z"/>
</svg>