<svg xmlns="http://www.w3.org/2000/svg" width="14" height="14" viewBox="0 0 14 14">
  <defs>
    <style>
      .cls-1 {
        fill: #72608a;
        fill-rule: evenodd;
      }
    </style>
  </defs>
  <path id="edit_1" data-name="edit 1" class="cls-1" d="M534.9,346a2.305,2.305,0,0,1,2.214,3.4l-9.318,9.779a10.629,10.629,0,0,1-3.6.721c-0.567-.393.244-3.691,0.628-4.118l5.881-6.073C531.972,348.389,533.055,346.7,534.9,346Zm-4.064,12.524,6.774,0.069a0.812,0.812,0,0,1,.363.892,0.855,0.855,0,0,1-.529.515H530.77C529.926,359.774,530.254,358.8,530.836,358.524Z" transform="translate(-524 -346)"/>
</svg>
