<svg xmlns="http://www.w3.org/2000/svg" width="14" height="14" viewBox="0 0 14 14">
  <defs>
    <style>
      .cls-1 {
        fill: #72608a;
        fill-rule: evenodd;
      }
    </style>
  </defs>
  <path id="_" data-name="+" class="cls-1" d="M942.546,442a8.016,8.016,0,0,1-3.519-.62,1.172,1.172,0,0,1-.907-0.692,0.505,0.505,0,0,1,0-.511c0.093-.329.543-1.7,1.016-1.511a15.284,15.284,0,0,0,1.451.62c0.3,0.089.546,0.037,0.871,0.11a3.008,3.008,0,0,0,1.015.036c0.375-.082.769-0.1,1.125-0.219,1.125-.37,1.13-0.089,1.756-0.969a6.143,6.143,0,0,0,.8-1.605c1-3.073-.01-4.785-1.974-5.638a8.261,8.261,0,0,0-1.415-.4,5.41,5.41,0,0,0-3.518.693,0.883,0.883,0,0,1-1.052-.256,3.713,3.713,0,0,1,.036-1.839,2.957,2.957,0,0,1,1.669-.875,7.183,7.183,0,0,1,6.094.912,7.323,7.323,0,0,1,2.72,3.9,7.146,7.146,0,0,1-1.124,5.981,4.641,4.641,0,0,1-.835,1.021A9.334,9.334,0,0,1,944.4,441.6a10.743,10.743,0,0,1-1.27.329A2.255,2.255,0,0,0,942.546,442ZM939,438h-2v-2h-2v-2h2v-2h2v2h2v2h-2v2Z" transform="translate(-935 -428)"/>
</svg>
