<svg xmlns="http://www.w3.org/2000/svg" width="20" height="20" viewBox="0 0 20 20">
  <defs>
    <style>
      .cls-1 {
        fill: #f3f3f4;
        fill-rule: evenodd;
      }
    </style>
  </defs>
  <path id="search_1" data-name="search 1" class="cls-1" d="M923.2,112c5.363-.073,10.279,4.008,9.377,9.816-0.283,1.828-1.173,2.844-1.687,4.223,0.912,0.713,5.582,4.567,3.649,5.866-1.146.77-4.856-3.4-5.414-4.106-1.385.507-2.4,1.4-4.238,1.681-6.411.983-11.682-5.716-9.3-11.849a8.854,8.854,0,0,1,5.1-5.083Zm0.235,2.5c-2.805.8-4.508,1.486-5.493,4.028-1.623,4.188,1.935,9.056,6.278,8.486C932.251,125.963,931.9,114.4,923.431,114.5Z" transform="translate(-915 -112)"/>
</svg>
