<svg 
 xmlns="http://www.w3.org/2000/svg"
 xmlns:xlink="http://www.w3.org/1999/xlink"
 width="20px" height="20px">
<path fill-rule="evenodd"  fill="rgb(243, 243, 244)"
 d="M8.195,0.1 C13.558,0.72 18.474,4.8 17.573,9.816 C17.289,11.645 16.399,12.660 15.886,14.40 C16.797,14.752 21.468,18.606 19.535,19.905 C18.388,20.676 14.679,16.507 14.120,15.799 C12.736,16.307 11.718,17.199 9.882,17.481 C3.471,18.463 -1.799,11.765 0.583,5.632 C1.496,3.283 3.327,1.458 5.684,0.548 C6.521,0.366 7.358,0.183 8.195,0.1 ZM8.431,2.503 C5.626,3.306 3.922,3.989 2.937,6.531 C1.314,10.720 4.873,15.587 9.215,15.17 C17.251,13.962 16.899,2.398 8.431,2.503 Z"/>
</svg>