<svg xmlns="http://www.w3.org/2000/svg" width="20" height="20" viewBox="0 0 20 20">
  <defs>
    <style>
      .cls-1 {
        fill: #72608a;
        fill-rule: evenodd;
      }
    </style>
  </defs>
  <path id="search_1" data-name="search 1" class="cls-1" d="M65.2,93c5.363-.073,10.279,4.007,9.378,9.816-0.284,1.828-1.174,2.844-1.687,4.223,0.912,0.713,5.582,4.567,3.649,5.866-1.147.77-4.856-3.4-5.415-4.106-1.384.507-2.4,1.4-4.238,1.681-6.411.983-11.682-5.716-9.3-11.849a8.86,8.86,0,0,1,5.1-5.084Zm0.235,2.5c-2.8.8-4.508,1.486-5.493,4.028-1.623,4.188,1.936,9.056,6.278,8.486C74.251,106.963,73.9,95.4,65.431,95.5Z" transform="translate(-57 -93)"/>
</svg>
