<svg xmlns="http://www.w3.org/2000/svg" width="27" height="33" viewBox="0 0 27 33">
  <defs>
    <style>
      .cls-1 {
        fill: #f2f2f3;
        fill-rule: evenodd;
      }
    </style>
  </defs>
  <path id="sell" class="cls-1" d="M818.493,630.389q-0.981,3.389-1.963,6.777c-0.764,1.194-9.022.721-11.361,0.706q-1.053-3.741-2.1-7.483a32.006,32.006,0,0,0-.912-3.106c-1.053-2.264-2.522-3.051-5.961-2.965-0.752.452-1.661,1.293-.912,2.4,0.705,1.04,3.139.2,3.857,1.2q1.439,4.941,2.876,9.883c-1.13.577-2.2,0.691-2.946,1.624a4.78,4.78,0,0,0,1.754,7.2c2.6,1.065,9.66.282,13.044,0.282,2.741,0,7.3.761,8.135-1.27-0.3-4.333-20.425.526-20.969-3.036-0.468-3.067,11.78-1.253,14.657-1.694,4.145-.636,4.313-5.144,5.4-8.824l0.912-3.53c-0.1-.51-1.994-1.76-2.794-1.063C818.779,627.863,818.757,629.436,818.493,630.389Zm-14.1,18c3.026-.132,3.44,3.872.982,4.518C802.292,653.719,801.534,649.535,804.4,648.39Zm11.992,0a2.307,2.307,0,0,1,.491,4.588C813.959,653.3,813.827,649.336,816.389,648.39ZM810.136,620c1.252,0.007,5.464,4.5,5.893,5.653a2.086,2.086,0,0,1-.429,1.938c-1.9.772-2.556-.793-3.6-2.242-0.024,6.718-.048-4.139-0.072,2.579,0,2.129.677,6.565-1.79,5.97-1.643-.4-1.074-4.305-1.074-6.435-0.024-6.563-.048,4.449-0.072-2.114l-0.071.078c-0.789,1.1-2.5,4.062-3.889,1.777C804.082,625.649,808.811,620.851,810.136,620Z" transform="translate(-795 -620)"/>
</svg>
