<svg 
 xmlns="http://www.w3.org/2000/svg"
 xmlns:xlink="http://www.w3.org/1999/xlink"
 width="17px" height="16px">
<path fill-rule="evenodd"  fill="rgb(114, 96, 138)"
 d="M8.468,0.0 C12.173,0.25 9.626,2.57 11.212,2.723 C12.423,3.232 12.945,0.962 14.122,1.793 C17.139,3.922 13.663,4.311 14.288,5.812 C14.668,6.725 16.576,6.64 16.933,6.975 C16.955,7.373 16.977,7.772 16.999,8.171 C16.981,10.449 14.803,8.842 14.288,10.130 C13.729,11.528 16.413,11.804 14.850,13.419 C14.552,13.696 14.255,13.973 13.957,14.249 C12.769,14.769 12.279,12.512 11.80,13.286 C10.135,13.897 11.125,15.733 9.658,15.943 C6.290,16.425 8.368,13.629 6.814,13.186 C5.667,12.860 5.227,14.862 4.103,14.216 C0.948,12.404 4.398,11.504 3.838,10.130 C3.444,9.163 1.437,9.930 1.160,8.835 C0.282,5.368 3.272,7.167 3.838,5.812 C4.338,4.615 2.430,4.312 2.780,3.155 C3.44,2.845 3.309,2.535 3.574,2.225 C5.293,0.528 5.618,3.440 6.980,2.690 C8.30,2.111 6.884,0.533 8.468,0.0 ZM8.699,5.281 C8.55,5.500 7.511,5.629 7.112,6.78 C5.620,7.756 6.674,11.141 9.460,10.662 C12.669,10.110 12.516,5.182 8.699,5.281 Z"/>
</svg>