<svg 
 xmlns="http://www.w3.org/2000/svg"
 xmlns:xlink="http://www.w3.org/1999/xlink"
 width="17px" height="17px">
<path fill-rule="evenodd"  fill="rgb(114, 96, 138)"
 d="M14.57,0.0 C16.859,0.46 18.9,3.149 15.942,4.636 C14.925,5.368 13.469,5.125 12.634,4.403 C10.121,5.670 7.606,6.938 5.92,8.206 C5.92,8.428 5.92,8.650 5.92,8.873 C7.606,10.140 10.121,11.408 12.634,12.675 C13.367,12.291 14.204,11.630 15.380,12.108 C16.223,12.452 17.190,13.432 16.967,14.810 C16.438,18.83 11.413,17.525 11.907,14.210 C9.371,12.942 6.834,11.675 4.299,10.407 C2.853,12.64 0.313,10.648 0.31,8.873 C0.352,6.444 2.854,5.18 4.299,6.671 C6.834,5.403 9.371,4.136 11.907,2.868 C11.646,1.126 12.867,0.445 14.57,0.0 Z"/>
</svg>