<svg 
 xmlns="http://www.w3.org/2000/svg"
 xmlns:xlink="http://www.w3.org/1999/xlink"
 width="20px" height="17px">
<path fill-rule="evenodd"  fill="rgb(114, 96, 138)"
 d="M5.651,0.0 C6.532,0.5 11.496,5.129 11.798,5.933 C12.15,6.510 11.695,6.981 11.496,7.282 C10.161,7.819 7.697,4.729 6.961,3.722 C6.944,8.396 6.927,7.842 6.910,12.516 C6.911,13.998 7.386,17.84 5.651,16.670 C4.494,16.394 4.895,13.674 4.895,12.192 C4.878,7.626 4.861,8.288 4.845,3.722 C4.828,3.740 4.811,3.758 4.794,3.775 C4.239,4.542 1.38,8.602 0.58,7.12 C0.608,5.930 4.718,0.592 5.651,0.0 ZM13.808,0.392 C15.561,0.446 15.18,2.993 15.17,4.815 C15.34,9.400 15.51,8.755 15.68,13.340 C15.85,13.322 15.101,13.304 15.118,13.286 C15.668,12.522 18.878,8.456 19.855,10.50 C20.20,10.319 20.53,10.858 19.905,11.182 C18.74,13.124 16.243,15.66 14.413,17.8 C13.624,17.333 8.398,11.886 8.114,11.128 C7.898,10.550 8.217,10.82 8.417,9.780 C9.752,9.241 12.216,12.333 12.952,13.340 C13.867,9.793 11.719,1.755 13.808,0.392 Z"/>
</svg>