<svg xmlns="http://www.w3.org/2000/svg" width="20" height="17" viewBox="0 0 20 17">
  <defs>
    <style>
      .cls-1 {
        fill: #72608a;
        fill-rule: evenodd;
      }
    </style>
  </defs>
  <path id="sort_1" data-name="sort 1" class="cls-1" d="M550.651,114c0.881,0,5.845,5.13,6.147,5.934a1.44,1.44,0,0,1-.3,1.348c-1.335.537-3.8-2.552-4.535-3.56-0.017,4.675-.033,4.12-0.05,8.8,0,1.481.476,4.567-1.26,4.153-1.156-.276-0.756-2.995-0.756-4.477-0.016-4.567-.033-3.9-0.05-8.471l-0.05.054c-0.555.766-3.757,4.827-4.737,3.237C544.391,119.931,549.719,114.592,550.651,114Zm8.158,0.392c1.752,0.054,1.209,2.6,1.209,4.424,0.017,4.584.034,3.94,0.05,8.525l0.051-.054c0.55-.765,3.759-4.831,4.736-3.237a1.415,1.415,0,0,1,.05,1.133l-5.492,5.826c-0.789.324-6.015-5.122-6.3-5.88a1.446,1.446,0,0,1,.3-1.349c1.335-.538,3.8,2.553,4.535,3.561C558.867,123.793,556.72,115.756,558.809,114.392Z" transform="translate(-545 -114)"/>
</svg>
