<svg xmlns="http://www.w3.org/2000/svg" xmlns:xlink="http://www.w3.org/1999/xlink" width="17px" height="16px">
  <path fill-rule="evenodd" fill="rgb(114, 96, 138)"
    d="M8.412,0.0 C10.185,0.389 10.536,3.404 11.376,4.738 C12.771,5.113 16.378,4.762 16.951,5.974 C17.463,7.943 13.683,8.816 13.281,10.300 C12.720,12.374 15.387,14.328 13.493,15.999 C11.464,16.29 10.491,14.127 8.765,13.733 C6.976,13.326 5.438,16.436 3.261,15.931 C3.120,15.748 2.979,15.565 2.838,15.381 C2.101,13.906 4.106,12.50 3.684,10.369 C3.199,8.434 0.834,8.199 0.156,5.630 C1.352,5.23 4.655,5.458 5.590,4.738 C6.998,3.652 6.412,0.996 8.412,0.0 Z" />
</svg>