<svg xmlns="http://www.w3.org/2000/svg" width="17" height="16" viewBox="0 0 17 16">
  <defs>
    <style>
      .cls-1 {
        fill: #72608a;
        fill-rule: evenodd;
      }
    </style>
  </defs>
  <path id="star_1_копия" data-name="star 1 копия" class="cls-1" d="M638.413,201c1.773,0.389,2.123,3.405,2.964,4.738,1.394,0.375,5,.025,5.574,1.236,0.513,1.969-3.267,2.843-3.669,4.326-0.562,2.074,2.106,4.028.212,5.7-2.029.03-3-1.873-4.728-2.266-1.79-.408-3.327,2.7-5.5,2.2l-0.423-.549c-0.736-1.476,1.269-3.332.847-5.013-0.486-1.935-4.52-2.17-3.528-4.738,1.2-.608,4.5-0.173,5.433-0.893C637,204.652,636.413,202,638.413,201Z" transform="translate(-630 -201)"/>
</svg>
