<svg id="steam_icon" data-name="steam icon" xmlns="http://www.w3.org/2000/svg" width="20" height="20" viewBox="0 0 20 20">
  <defs>
    <style>
      .cls-1 {
        fill: #f3f3f4;
        stroke-width: 1px;
        fill-rule: evenodd;
      }

      .cls-1, .cls-2 {
        stroke: #f3f3f4;
      }

      .cls-2 {
        fill: none;
        stroke-width: 2px;
      }
    </style>
  </defs>
  <path id="steam_989" data-name="steam 989" class="cls-1" d="M821.991,535.941a3.425,3.425,0,0,1,.917.372c0.652,0.28,1.283.462,1.935,0.742a2.329,2.329,0,0,0,.951.372,3.489,3.489,0,0,1,1.121-.27c0.4-.685.91-1.327,1.358-1.992a3.483,3.483,0,0,0,.374-0.473c0.08-.2,0-0.544.067-0.743a2.892,2.892,0,0,1,.985-1.452,2.773,2.773,0,0,1,3.905.777,3.274,3.274,0,0,1,.306.743,2.753,2.753,0,0,1-1.63,3.106,4.434,4.434,0,0,1-.679.169h-0.374a1.279,1.279,0,0,0-.238.2c-0.357.25-.706,0.5-1.052,0.743-0.321.229-.641,0.451-0.951,0.676a0.946,0.946,0,0,0-.2.1v0.371a1.76,1.76,0,0,0-.068.3,2.724,2.724,0,0,1-.305.574,2.084,2.084,0,0,1-2.717.406,2.131,2.131,0,0,1-.577-0.676,1.118,1.118,0,0,0-.238-0.506,4.089,4.089,0,0,0-.848-0.338c-0.574-.247-1.174-0.5-1.766-0.743l-0.2-.844A7.784,7.784,0,0,1,821.991,535.941Zm9.066-3.073a2.878,2.878,0,0,1-.475.135,1.921,1.921,0,0,0-.951.98,1.789,1.789,0,1,0,3.294-.1A1.869,1.869,0,0,0,831.057,532.868Zm0.034,0.439a1.361,1.361,0,0,1,1.427,1.925,1.5,1.5,0,0,1-1.087.743,1.378,1.378,0,0,1-1.392-1.823,1.526,1.526,0,0,1,.781-0.777A2.059,2.059,0,0,0,831.091,533.307Zm-4.482,4.289a0.8,0.8,0,0,1-.238.067V537.7h0.034c0.431,0.377,1.089.27,1.393,0.878a1.138,1.138,0,0,1-1.223,1.587l-1.052-.405v0.034a2.134,2.134,0,0,0,.713.675,1.6,1.6,0,0,0,2-.777,1.4,1.4,0,0,0,.068-0.81A1.469,1.469,0,0,0,826.609,537.6Z" transform="translate(-819 -526)"/>
  <circle id="Эллипс_990" data-name="Эллипс 990" class="cls-2" cx="10" cy="10" r="9"/>
</svg>
