<svg xmlns="http://www.w3.org/2000/svg" width="12" height="12" viewBox="0 0 12 12">
  <defs>
    <style>
      .cls-1 {
        fill: #72608a;
        fill-rule: evenodd;
      }
    </style>
  </defs>
  <path id="cross_755" data-name="cross 755" class="cls-1" d="M1489.42,203.317c-0.42.475-.85,0.938-1.25,1.32l-2.31,2.181c1.18,1.114,2.59,2.795,3.69,3.865,0.91,0.917.34,2.7-1.03,2.251-0.84-.356-2.14-1.875-3.17-2.849a4.694,4.694,0,0,0-1.4-1.25,3.761,3.761,0,0,0-1.03.972c-0.74.737-1.52,1.436-2.28,2.154a2.112,2.112,0,0,1-1.55.973c-0.94.038-1.63-1.049-.52-2.251,0.42-.476.85-1.231,1.26-1.613,0.76-.725,1.53-1.252,2.3-1.906-1.17-1.114-2.57-2.783-3.66-3.847-0.91-.917-0.34-2.7,1.03-2.251,0.83,0.355,2.13,1.875,3.16,2.849a4.657,4.657,0,0,0,1.39,1.25,3.751,3.751,0,0,0,1.03-.973c0.74-.736,1.52-1.435,2.28-2.153a2.111,2.111,0,0,1,1.54-.973C1489.84,201.028,1490.53,202.115,1489.42,203.317Z" transform="translate(-1478 -201)"/>
</svg>
