<svg width="32" height="32" viewBox="0 0 32 32" fill="none" xmlns="http://www.w3.org/2000/svg">
<g clip-path="url(#clip0_3_2)">
<path fill-rule="evenodd" clip-rule="evenodd" d="M20.962 7.12L24.522 1.736V22.522H10.78L11.56 21.344C11.2884 21.341 11.0212 21.2759 10.7786 21.1539C10.5359 21.0319 10.3244 20.8562 10.16 20.64L8.87799 22.57L9.05799 24.118H24.516V32H26.188V24.118H29.94V22.518H26.194V0H23.888L19.706 6.292C19.902 6 21.232 6.72 20.962 7.12Z" fill="#ACACBF"/>
<path fill-rule="evenodd" clip-rule="evenodd" d="M19.408 19.092H16.222C16.0897 18.4269 16.0141 17.7518 15.996 17.074C15.974 16.558 15.95 14.728 15.95 11.562C15.95 10.162 15.588 9.19199 14.324 9.19199C13.5036 9.22293 12.7134 9.50964 12.064 10.012C12.0917 10.1591 12.1071 10.3083 12.11 10.458C12.132 10.81 12.178 10.67 12.178 15.736C12.1662 16.8599 12.2573 17.9826 12.45 19.09H9.26198C9.12842 18.4257 9.05148 17.7513 9.03198 17.074C9.01398 16.558 8.99198 14.728 8.99198 11.562C9.00803 10.9832 8.90029 10.4077 8.67598 9.87399C8.5513 9.64703 8.36234 9.46198 8.13283 9.34206C7.90332 9.22215 7.64349 9.17272 7.38598 9.19999C6.59779 9.23512 5.84008 9.51472 5.21798 9.99999V19.1H2.03198V6.96599L4.58598 6.68399L4.85798 8.28399C5.85405 7.27381 7.19135 6.67185 8.60798 6.59599C9.22527 6.56288 9.83817 6.71703 10.3664 7.03822C10.8945 7.35941 11.3134 7.83267 11.568 8.39599C12.607 7.31205 14.0222 6.66782 15.522 6.59599C18.052 6.59599 19.138 8.75399 19.138 11.358C19.138 14.666 19.16 16.558 19.184 17.082C19.2018 17.7571 19.2768 18.4295 19.408 19.092Z" fill="#5B3889"/>
</g>
<defs>
<clipPath id="clip0_3_2">
<rect width="32" height="32" fill="white"/>
</clipPath>
</defs>
</svg>
