<svg id="logo_small_копия_6" data-name="logo small копия 6" xmlns="http://www.w3.org/2000/svg" width="16" height="16" viewBox="0 0 16 16">
  <defs>
    <style>
      .cls-1, .cls-2 {
        fill: #202025;
      }

      .cls-1, .cls-3 {
        stroke: #acacbf;
        stroke-width: 2px;
      }

      .cls-1, .cls-2, .cls-3, .cls-4 {
        fill-rule: evenodd;
      }

      .cls-3, .cls-4 {
        fill: #5b3889;
      }
    </style>
  </defs>
  <path id="_4" data-name="4" class="cls-1" d="M1614,23h-1V21h-5V20l5-9h1v9h1v1h-1v2Zm-1-3V13l-4,7h4Z" transform="translate(-1601 -9)"/>
  <path id="_4_копия" data-name="4 копия" class="cls-2" d="M1614,23h-1V21h-5V20l5-9h1v9h1v1h-1v2Zm-1-3V13l-4,7h4Z" transform="translate(-1601 -9)"/>
  <path id="m" class="cls-3" d="M1610.99,18.01h-1.46a6.237,6.237,0,0,1-.1-0.97c-0.01-.248-0.02-1.128-0.02-2.65,0-.677-0.17-1.139-0.75-1.139a1.763,1.763,0,0,0-1.04.395,1.4,1.4,0,0,1,.02.214c0.01,0.169.03,0.1,0.03,2.538a8.742,8.742,0,0,0,.13,1.613h-1.47a6.237,6.237,0,0,1-.1-0.97c-0.01-.248-0.02-1.128-0.02-2.65a1.922,1.922,0,0,0-.15-0.812,0.593,0.593,0,0,0-.59-0.327,1.681,1.681,0,0,0-.99.383V18.01h-1.47V12.179l1.17-.135,0.13,0.767a2.555,2.555,0,0,1,1.72-.812,1.4,1.4,0,0,1,1.36.869,2.65,2.65,0,0,1,1.82-.869c1.16,0,1.66,1.038,1.66,2.29,0,1.59.01,2.5,0.02,2.752A6.237,6.237,0,0,0,1610.99,18.01Z" transform="translate(-1601 -9)"/>
  <path id="m_копия" data-name="m копия" class="cls-4" d="M1610.99,18.01h-1.46a6.237,6.237,0,0,1-.1-0.97c-0.01-.248-0.02-1.128-0.02-2.65,0-.677-0.17-1.139-0.75-1.139a1.763,1.763,0,0,0-1.04.395,1.4,1.4,0,0,1,.02.214c0.01,0.169.03,0.1,0.03,2.538a8.742,8.742,0,0,0,.13,1.613h-1.47a6.237,6.237,0,0,1-.1-0.97c-0.01-.248-0.02-1.128-0.02-2.65a1.922,1.922,0,0,0-.15-0.812,0.593,0.593,0,0,0-.59-0.327,1.681,1.681,0,0,0-.99.383V18.01h-1.47V12.179l1.17-.135,0.13,0.767a2.555,2.555,0,0,1,1.72-.812,1.4,1.4,0,0,1,1.36.869,2.65,2.65,0,0,1,1.82-.869c1.16,0,1.66,1.038,1.66,2.29,0,1.59.01,2.5,0.02,2.752A6.237,6.237,0,0,0,1610.99,18.01Z" transform="translate(-1601 -9)"/>
</svg>
