<svg width="32" height="32" viewBox="0 0 32 32" fill="none" xmlns="http://www.w3.org/2000/svg">
<g clip-path="url(#clip0_3_2)">
<path fill-rule="evenodd" clip-rule="evenodd" d="M26 28H24V24H14V22L24 4H26V22H28V24H26V28ZM24 22V8L16 22H24Z" fill="#ACACBF" stroke="#202025" stroke-width="2"/>
<path fill-rule="evenodd" clip-rule="evenodd" d="M26 28H24V24H14V22L24 4H26V22H28V24H26V28ZM24 22V8L16 22H24Z" fill="#ACACBF"/>
<path fill-rule="evenodd" clip-rule="evenodd" d="M19.98 18.02H17.0601C16.9429 17.3795 16.876 16.7309 16.8601 16.08C16.8401 15.584 16.8201 13.824 16.8201 10.78C16.8201 9.42599 16.4801 8.50199 15.3201 8.50199C14.5596 8.53393 13.8299 8.81107 13.24 9.29199C13.2643 9.43342 13.2777 9.5765 13.28 9.71999C13.3 10.058 13.3401 9.91999 13.3401 14.796C13.3268 15.877 13.4139 16.957 13.6001 18.022H10.6599C10.5427 17.3815 10.4759 16.7329 10.46 16.082C10.44 15.586 10.4199 13.826 10.4199 10.782C10.4388 10.2253 10.3366 9.67119 10.1201 9.15799C10.0132 8.94199 9.84289 8.7637 9.63208 8.64686C9.42127 8.53002 9.17978 8.48018 8.93994 8.50399C8.21453 8.53876 7.5199 8.8075 6.95996 9.26999V18.02H4.02002V6.35799L6.36011 6.08799L6.62012 7.62199C7.51505 6.65811 8.74712 6.07643 10.0601 5.99799C10.6374 5.97156 11.2086 6.12442 11.6956 6.4356C12.1825 6.74677 12.5614 7.20101 12.78 7.73599C13.7169 6.69954 15.0249 6.07492 16.4199 5.99799C18.7399 5.99799 19.74 8.07399 19.74 10.578C19.74 13.758 19.76 15.578 19.78 16.082C19.7961 16.7322 19.8629 17.3802 19.98 18.02Z" fill="#5B3889" stroke="#202025" stroke-width="2"/>
<path fill-rule="evenodd" clip-rule="evenodd" d="M19.98 18.02H17.0601C16.9429 17.3795 16.876 16.7309 16.8601 16.08C16.8401 15.584 16.8201 13.824 16.8201 10.78C16.8201 9.42599 16.4801 8.50199 15.3201 8.50199C14.5596 8.53393 13.8299 8.81107 13.24 9.29199C13.2643 9.43342 13.2777 9.5765 13.28 9.71999C13.3 10.058 13.3401 9.91999 13.3401 14.796C13.3268 15.877 13.4139 16.957 13.6001 18.022H10.6599C10.5427 17.3815 10.4759 16.7329 10.46 16.082C10.44 15.586 10.4199 13.826 10.4199 10.782C10.4388 10.2253 10.3366 9.67119 10.1201 9.15799C10.0132 8.94199 9.84289 8.7637 9.63208 8.64686C9.42127 8.53002 9.17978 8.48018 8.93994 8.50399C8.21453 8.53876 7.5199 8.8075 6.95996 9.26999V18.02H4.02002V6.35799L6.36011 6.08799L6.62012 7.62199C7.51505 6.65811 8.74712 6.07643 10.0601 5.99799C10.6374 5.97156 11.2086 6.12442 11.6956 6.4356C12.1825 6.74677 12.5614 7.20101 12.78 7.73599C13.7169 6.69954 15.0249 6.07492 16.4199 5.99799C18.7399 5.99799 19.74 8.07399 19.74 10.578C19.74 13.758 19.76 15.578 19.78 16.082C19.7961 16.7322 19.8629 17.3802 19.98 18.02Z" fill="#5B3889"/>
</g>
<defs>
<clipPath id="clip0_3_2">
<rect width="32" height="32" fill="white"/>
</clipPath>
</defs>
</svg>
